<svg display="none" xmlns="http://www.w3.org/2000/svg">

<symbol id='left' viewBox="0 0 63 38"><g><path fill='' d="M1.23223 17.2322C0.255918 18.2085 0.255919 19.7915 1.23223 20.7678L17.1421 36.6777C18.1184 37.654 19.7014 37.654 20.6777 36.6777C21.654 35.7014 21.654 34.1184 20.6777 33.1421L6.53553 19L20.6777 4.85787C21.654 3.88156 21.654 2.29864 20.6777 1.32233C19.7014 0.346024 18.1184 0.346024 17.1421 1.32233L1.23223 17.2322ZM63 16.5L3 16.5L3 21.5L63 21.5L63 16.5Z"/></g></symbol>
<symbol id='right' viewBox="0 0 63 38">
  <g>
  <path fill='' d="M61.7678 20.7678C62.7441 19.7915 62.7441 18.2085 61.7678 17.2322L45.8579 1.32233C44.8816 0.34602 43.2986 0.34602 42.3223 1.32233C41.346 2.29864 41.346 3.88155 42.3223 4.85786L56.4645 19L42.3223 33.1421C41.346 34.1184 41.346 35.7014 42.3223 36.6777C43.2986 37.654 44.8816 37.654 45.8579 36.6777L61.7678 20.7678ZM0 21.5L60 21.5V16.5L0 16.5L0 21.5Z"/>
  </g>
</symbol>
</svg>