<svg xmlns="http://www.w3.org/2000/svg" width="14" height="14" viewBox="0 0 14 14"><defs><clipPath id="jtgsa"><path fill="#fff" d="M0 7a7 7 0 1 0 14 0A7 7 0 0 0 0 7z"/></clipPath><clipPath id="jtgsb"><path fill="#fff" d="M5 7a2 2 0 1 0 4 0 2 2 0 0 0-4 0z"/></clipPath></defs><g><g><path fill="none" stroke="#e9563d" stroke-miterlimit="20" stroke-width="4" d="M0 7a7 7 0 1 0 14 0A7 7 0 0 0 0 7z" clip-path="url(&quot;#jtgsa&quot;)"/></g><g><path fill="none" stroke="#e9563d" stroke-miterlimit="20" stroke-width="4" d="M5 7a2 2 0 1 0 4 0 2 2 0 0 0-4 0z" clip-path="url(&quot;#jtgsb&quot;)"/></g></g></svg>